HIERARCHY
ROOT hip
{
	OFFSET -0.864981 3.841094 -1.834183
	CHANNELS 6 Xposition Yposition Zposition Xrotation Yrotation Zrotation
	JOINT abdomen
	{
		OFFSET 0.006265 -5.260545 1.476358
		CHANNELS 6 Xposition Yposition Zposition Xrotation Yrotation Zrotation
		JOINT chest
		{
			OFFSET 0.000000 0.408822 5.038101
			CHANNELS 3 Xrotation Yrotation Zrotation
			JOINT neck
			{
				OFFSET 0.000000 0.295671 5.933953
				CHANNELS 6 Xposition Yposition Zposition Xrotation Yrotation Zrotation
				JOINT head
				{
					OFFSET 0.000000 -0.000000 3.915264
					CHANNELS 3 Xrotation Yrotation Zrotation
					End Site
					{
						OFFSET 0.000000 0.502962 19.049231
					}
				}
			}
			JOINT rCollar
			{
				OFFSET -1.650733 0.653657 5.371155
				CHANNELS 6 Xposition Yposition Zposition Xrotation Yrotation Zrotation
				JOINT rShldr
				{
					OFFSET -7.797990 0.032507 0.258621
					CHANNELS 6 Xposition Yposition Zposition Xrotation Yrotation Zrotation
					JOINT rForeArm
					{
						OFFSET -8.142947 0.000000 0.263153
						CHANNELS 3 Xrotation Yrotation Zrotation
						JOINT rHand
						{
							OFFSET -7.471985 0.000000 -0.180000
							CHANNELS 3 Xrotation Yrotation Zrotation
							End Site
							{
								OFFSET -7.870861 -0.751105 0.069523
							}
						}
					}
				}
			}
			JOINT lCollar
			{
				OFFSET 1.564497 0.510199 5.311192
				CHANNELS 6 Xposition Yposition Zposition Xrotation Yrotation Zrotation
				JOINT lShldr
				{
					OFFSET 8.424187 0.129074 -0.152340
					CHANNELS 6 Xposition Yposition Zposition Xrotation Yrotation Zrotation
					JOINT lForeArm
					{
						OFFSET 8.508548 0.000000 0.000000
						CHANNELS 3 Xrotation Yrotation Zrotation
						JOINT lHand
						{
							OFFSET 6.852003 0.271201 0.000000
							CHANNELS 3 Xrotation Yrotation Zrotation
							End Site
							{
								OFFSET 8.351748 -0.791228 0.000000
							}
						}
					}
				}
			}
		}
	}
	JOINT rThigh
	{
		OFFSET -2.987688 -4.405677 -0.505213
		CHANNELS 6 Xposition Yposition Zposition Xrotation Yrotation Zrotation
		JOINT rShin
		{
			OFFSET -2.342511 0.294964 -12.019397
			CHANNELS 3 Xrotation Yrotation Zrotation
			JOINT rFoot
			{
				OFFSET -1.540023 -0.720672 -14.881804
				CHANNELS 3 Xrotation Yrotation Zrotation
				End Site
				{
					OFFSET -0.008528 -11.284888 -1.455639
				}
			}
		}
	}
	JOINT lThigh
	{
		OFFSET 3.000217 -4.405677 -0.505213
		CHANNELS 6 Xposition Yposition Zposition Xrotation Yrotation Zrotation
		JOINT lShin
		{
			OFFSET 2.342512 0.294964 -12.019397
			CHANNELS 3 Xrotation Yrotation Zrotation
			JOINT lFoot
			{
				OFFSET 1.274147 -0.720672 -14.684615
				CHANNELS 3 Xrotation Yrotation Zrotation
				End Site
				{
					OFFSET -0.349244 -11.276767 -1.189445
				}
			}
		}
	}
}
MOTION
Frames: 1
Frame Time: 0.016667
-0.866106 6.347174 51.621689 -9.181127 -0.995906 -3.163158 0.006266 -5.260542 1.476361 3.264380 -0.676144 -0.898300 10.550274 1.926396 -3.195869 0.000001 0.295677 5.933958 0.000001 -0.000000 -0.000001 0.000001 -0.000000 -0.000000 -1.650733 0.653657 5.371155 5.448941 -6.592577 27.891236 -7.797986 0.032502 0.258625 -90.373709 -49.760868 47.849539 20.224721 -10.481276 -4.629778 157.634318 7.141162 17.189790 1.564497 0.510199 5.311195 1.904605 8.180559 -19.976379 8.424189 0.129083 -0.152333 -49.940745 10.468844 -69.903680 6.840630 -1.063568 -7.167926 117.272572 2.179023 -26.026021 -2.987687 -4.405683 -0.505212 -52.555307 -2.686775 -3.576924 47.013831 3.262186 8.826428 -54.714730 3.579234 0.513137 3.000215 -4.405680 -0.505217 -43.453008 -4.128902 6.005175 37.835437 -1.072354 -3.670966 -54.798997 1.290529 -0.374738 
